<svg xmlns="http://www.w3.org/2000/svg" xmlns:xlink="http://www.w3.org/1999/xlink" width="500" zoomAndPan="magnify" viewBox="0 0 375 374.999991" height="500" preserveAspectRatio="xMidYMid meet" version="1.0"><defs><g/><clipPath id="da68eabde5"><path d="M 116 170 L 262.5 170 L 262.5 221 L 116 221 Z M 116 170 " clip-rule="nonzero"/></clipPath><clipPath id="4174fe85f0"><path d="M 112.5 141 L 251 141 L 251 223 L 112.5 223 Z M 112.5 141 " clip-rule="nonzero"/></clipPath></defs><g clip-path="url(#da68eabde5)"><path fill="#4699d3" d="M 262.5 202.921875 C 262.5 202.921875 262.316406 202.523438 262.007812 202.125 L 262.007812 197.859375 C 262.007812 197.859375 261.855469 197.304688 261.484375 197.058594 C 261.484375 197.058594 260.714844 191.441406 259.453125 187.207031 C 259.453125 187.207031 258.714844 183.367188 252.59375 182.171875 L 230.652344 182.171875 C 230.652344 182.171875 230.347656 182.171875 230.039062 182.292969 C 230.160156 181.988281 230.46875 181.773438 230.808594 181.773438 L 247.636719 181.371094 C 247.484375 180.265625 246.652344 179.898438 245.546875 179.898438 L 228.101562 179.898438 C 227.421875 179.898438 226.746094 179.960938 226.101562 180.144531 L 195.300781 190.488281 L 224.253906 185.054688 L 224.316406 188.308594 L 196.128906 195.371094 L 224.375 191.871094 L 224.4375 194.605469 L 195.484375 200.128906 L 224.5 198.871094 L 224.5625 201.695312 L 196.007812 205.132812 L 224.652344 206.515625 L 224.714844 209.617188 L 196.191406 210.476562 L 226.898438 214.527344 C 226.898438 214.527344 226.59375 208.632812 228.929688 207.3125 C 228.929688 206.605469 228.929688 205.59375 228.929688 204.398438 C 229.023438 204.425781 229.144531 204.457031 229.269531 204.457031 L 229.269531 205.71875 C 229.269531 205.71875 229.269531 205.902344 229.453125 205.960938 L 229.453125 207.867188 C 229.453125 207.867188 227.144531 208.972656 227.578125 215.324219 C 227.578125 215.324219 228.5 215.539062 228.898438 215.601562 C 228.839844 214.652344 228.839844 213.332031 228.839844 213.332031 C 229.023438 210.261719 229.761719 209.523438 229.761719 209.523438 C 230.839844 207.898438 232.5625 208.480469 232.5625 208.480469 C 231.546875 208.542969 230.5625 209.371094 230.253906 209.832031 C 229.117188 211.519531 229.207031 214.128906 229.363281 215.601562 C 229.390625 215.941406 229.546875 216.460938 229.730469 216.984375 C 229.730469 216.984375 211.824219 215.140625 211.824219 215.140625 L 232.070312 220.390625 L 234.59375 220.328125 L 234.652344 220.328125 C 234.652344 220.328125 236.40625 220.300781 236.960938 217.996094 L 249.976562 217.8125 C 249.976562 217.8125 251.023438 219.46875 252.40625 219.441406 L 254.992188 219.441406 C 254.992188 219.441406 256.101562 219.347656 256.992188 217.78125 L 260.039062 217.535156 C 260.039062 217.535156 261.636719 217.382812 261.761719 216.402344 L 261.761719 207.191406 C 261.792969 207.191406 262.4375 207.28125 262.4375 206.269531 C 262.4375 206.175781 262.4375 202.953125 262.4375 202.953125 Z M 258.53125 187.789062 C 258.53125 187.789062 259.421875 191.257812 260.007812 197.058594 C 260.007812 197.058594 245.914062 197.582031 241.085938 197.273438 C 241.085938 197.273438 240.714844 190.734375 240.40625 187.941406 L 258.53125 187.820312 Z M 259.269531 202.308594 L 246.347656 202.585938 L 244.46875 201.296875 L 246.5 201.789062 L 259.300781 201.601562 L 259.914062 201.296875 Z M 259.609375 203.84375 L 258.960938 204.859375 L 247.023438 205.195312 L 245.390625 203.96875 L 247.269531 204.488281 L 258.992188 204.152344 Z M 242.929688 207.160156 L 242.4375 206.882812 C 242.285156 206.792969 242.191406 206.636719 242.191406 206.484375 L 242.101562 204.058594 C 242.101562 203.90625 242.253906 203.722656 242.375 203.8125 L 242.808594 204.121094 C 242.808594 204.183594 242.929688 207.191406 242.929688 207.191406 Z M 237.699219 184.566406 C 237.699219 184.566406 238.160156 184.503906 238.253906 184.902344 L 238.253906 186.253906 C 238.253906 186.253906 237.945312 186.777344 237.300781 186.683594 L 233.390625 186.5 L 237.730469 186.101562 L 237.730469 185.117188 C 237.730469 185.117188 232.007812 184.996094 232.007812 184.996094 L 237.699219 184.597656 Z M 233.023438 217.046875 C 232.808594 217.351562 232.53125 217.535156 232.253906 217.535156 C 231.390625 217.566406 230.652344 216.1875 230.5625 214.4375 C 230.46875 212.6875 231.085938 211.210938 231.945312 211.179688 C 232.347656 211.179688 232.714844 211.457031 233.023438 211.980469 C 232.960938 211.980469 232.898438 211.980469 232.839844 211.980469 C 232.160156 212.011719 231.667969 213.175781 231.730469 214.589844 C 231.792969 215.941406 232.375 217.046875 233.023438 217.074219 Z M 235.824219 209.371094 C 234.40625 206.023438 230.5625 206.730469 230.5625 206.730469 L 230.5625 205.71875 C 235.699219 205.289062 235.882812 209.523438 235.824219 209.371094 Z M 229.976562 203.382812 L 236.871094 202.921875 L 236.871094 200.742188 C 236.871094 200.742188 229.144531 198.808594 229.144531 198.808594 L 238.191406 200.285156 L 238.191406 203.8125 C 238.191406 203.8125 229.945312 203.382812 229.945312 203.382812 Z M 232.007812 195.003906 C 230.777344 194.820312 230.839844 193.191406 230.839844 193.191406 L 230.839844 188.15625 C 230.839844 188.15625 238.714844 188.003906 238.714844 188.003906 L 238.898438 196.96875 Z M 239.792969 212.6875 C 239.609375 212.6875 239.453125 212.53125 239.453125 212.347656 L 239.453125 210.535156 C 239.453125 210.351562 239.609375 210.199219 239.792969 210.199219 L 243.976562 210.199219 C 246.160156 210.292969 246.070312 212.65625 246.070312 212.65625 L 239.792969 212.65625 Z M 258.746094 207.160156 L 247.667969 207.621094 L 245.945312 206.421875 L 247.824219 206.945312 L 258.839844 206.578125 L 259.453125 206.269531 L 258.777344 207.160156 Z M 261.390625 211.828125 C 261.390625 211.980469 261.269531 212.101562 261.117188 212.101562 L 259.546875 212.101562 C 259.546875 209.921875 260.929688 209.738281 260.929688 209.738281 L 261.453125 209.617188 L 261.453125 211.796875 Z M 261.730469 206.300781 C 261.730469 206.300781 261.699219 206.699219 260.898438 206.761719 L 260.898438 203.996094 C 260.898438 203.875 260.960938 203.722656 261.085938 203.660156 L 261.453125 203.414062 C 261.578125 203.351562 261.730469 203.414062 261.730469 203.566406 Z M 197.824219 171.640625 L 162.160156 171.640625 C 161.578125 171.640625 161.117188 172.101562 161.117188 172.683594 L 161.117188 180.480469 C 156.5 181.339844 152.59375 182.230469 149.609375 182.9375 L 149.609375 182.292969 L 141.390625 182.292969 C 140.871094 182.292969 140.4375 182.722656 140.4375 183.246094 L 140.4375 184.75 C 139.792969 185.484375 139.175781 186.40625 139.175781 186.40625 L 136.746094 191.378906 C 135.699219 194.203125 132.683594 196.046875 132.683594 196.046875 L 131.730469 196.414062 L 131.730469 192.730469 L 126.039062 192.730469 C 125.515625 192.730469 125.085938 193.160156 125.085938 193.683594 L 125.085938 198.933594 L 116.375 202.25 L 116.375 196.8125 C 116.375 196.261719 116.652344 195.769531 117.117188 195.464844 L 123.207031 191.566406 C 123.453125 191.410156 123.730469 191.320312 124.039062 191.320312 L 131.730469 191.320312 L 131.730469 186.347656 C 131.730469 185.792969 132.007812 185.300781 132.46875 184.996094 L 138.5625 181.097656 C 138.808594 180.941406 139.085938 180.851562 139.390625 180.851562 L 149.609375 180.851562 L 149.609375 177.105469 C 149.609375 176.523438 149.914062 175.96875 150.40625 175.664062 L 159.054688 170.351562 C 159.332031 170.199219 159.636719 170.105469 159.945312 170.105469 L 198.746094 170.105469 C 199.699219 170.105469 200.46875 170.875 200.46875 171.824219 L 200.46875 177.964844 C 199.914062 177.8125 199.363281 177.6875 198.839844 177.597656 L 198.839844 172.652344 C 198.839844 172.070312 198.375 171.609375 197.792969 171.609375 Z M 197.824219 171.640625 " fill-opacity="1" fill-rule="nonzero"/></g><g clip-path="url(#4174fe85f0)"><path fill="#1d3865" d="M 162.59375 221.3125 C 162.59375 221.3125 158.746094 221.128906 158.101562 221.742188 C 158.101562 221.742188 154.222656 223.0625 150.839844 221.433594 C 150.839844 221.433594 153.484375 221.863281 156.839844 221.066406 C 156.839844 221.066406 158.929688 220.328125 162.625 221.3125 Z M 217.484375 189.507812 C 210.160156 202.800781 204.222656 201.574219 198.5 213.421875 C 198.5 213.421875 196.285156 210.628906 194.316406 209.125 C 194.316406 209.125 192.53125 207.222656 191.976562 205.101562 C 191.976562 205.101562 191.609375 207.898438 193.332031 209.800781 C 195.855469 212.65625 197.453125 215.324219 197.730469 217.105469 C 197.792969 217.445312 197.761719 217.75 197.730469 218.027344 L 196.253906 218.027344 C 196.375 218.027344 196.5 218.027344 196.625 218.058594 C 202.960938 218.917969 208.898438 219.039062 208.898438 219.039062 C 204.101562 220.421875 198.714844 220.144531 193.636719 219.410156 C 189.054688 218.765625 184.714844 217.78125 181.300781 217.382812 C 177.546875 216.953125 173.761719 217.933594 171.054688 218.917969 C 168.625 219.839844 165.238281 220.789062 165.238281 220.789062 C 165.824219 220.085938 167.515625 219.253906 168.191406 218.734375 C 168.929688 218.304688 169.699219 217.933594 170.46875 217.628906 L 142.347656 217.230469 C 147.390625 218.640625 152.5 219.777344 152.5 219.777344 C 145.453125 219.226562 134.625 217.105469 134.625 217.105469 L 134.59375 217.105469 C 124.960938 215.019531 121.761719 214.527344 118.4375 215.570312 C 116.222656 216.246094 115.207031 217.046875 115.023438 217.199219 C 115.609375 216.308594 116.375 215.570312 117.269531 214.988281 C 115.914062 213.574219 112.5 209.554688 112.5625 204.949219 L 132.777344 197.488281 C 132.777344 197.488281 136.101562 196.84375 137.144531 194.019531 L 139.667969 189.109375 C 139.667969 189.109375 140.347656 186.746094 143.824219 185.914062 C 148.285156 184.871094 166.746094 179.835938 191.269531 178.515625 C 193.636719 178.394531 196.007812 178.515625 198.316406 178.917969 C 202.839844 179.714844 209.667969 182.476562 216.316406 185.484375 C 217.824219 186.191406 218.347656 188.035156 217.546875 189.507812 Z M 152.46875 186.53125 L 147.390625 187.695312 L 147.238281 189.691406 L 152.191406 188.527344 L 152.4375 186.53125 Z M 159.515625 184.996094 L 154.4375 186.160156 L 154.191406 188.1875 L 159.269531 187.019531 L 159.546875 185.027344 Z M 250.746094 143.613281 C 251.023438 148.246094 237.484375 152.636719 237.484375 152.636719 C 237.484375 152.636719 222.191406 157.796875 209.730469 161.386719 L 208.5625 161.664062 L 208.5625 161.726562 C 203.761719 163.074219 199.453125 164.148438 196.777344 164.550781 C 186.992188 165.992188 179.175781 164.703125 178.40625 164.640625 C 177.636719 164.578125 177.515625 164.304688 177.515625 164.304688 L 177.269531 163.535156 C 177.175781 163.167969 177.761719 163.105469 177.761719 163.105469 L 165.730469 160.710938 L 167.824219 160.097656 L 179.855469 161.082031 L 176.777344 152.332031 L 178.625 151.839844 L 187.667969 158.683594 L 199.269531 155.03125 L 196.929688 153.4375 L 174.070312 144.53125 L 180.007812 142.015625 L 216.007812 148.617188 C 216.007812 148.617188 240.4375 141.15625 241.300781 141.09375 C 243.300781 140.757812 245.023438 141.648438 245.023438 141.648438 C 244.652344 141.585938 243.085938 141.800781 243.085938 141.800781 C 241.914062 142.046875 242.285156 142.8125 242.285156 142.8125 C 246.40625 141.679688 249.300781 142.292969 250.128906 142.597656 C 250.992188 142.9375 250.746094 143.582031 250.746094 143.582031 Z M 223.730469 148.371094 C 223.730469 148.15625 223.578125 148.0625 223.363281 148.125 L 223.085938 148.21875 C 222.871094 148.277344 222.714844 148.492188 222.714844 148.707031 L 222.714844 149.292969 C 222.714844 149.507812 222.871094 149.597656 223.054688 149.535156 L 223.332031 149.445312 C 223.546875 149.382812 223.699219 149.167969 223.699219 148.953125 L 223.699219 148.371094 Z M 226.316406 147.511719 C 226.316406 147.296875 226.160156 147.203125 225.945312 147.265625 L 225.667969 147.359375 C 225.453125 147.417969 225.300781 147.632812 225.300781 147.847656 L 225.300781 148.433594 C 225.300781 148.648438 225.453125 148.738281 225.636719 148.675781 L 225.914062 148.585938 C 226.128906 148.523438 226.285156 148.308594 226.285156 148.09375 L 226.285156 147.511719 Z M 228.898438 146.652344 C 228.898438 146.4375 228.746094 146.34375 228.53125 146.40625 L 228.253906 146.496094 C 228.039062 146.558594 227.882812 146.773438 227.882812 146.988281 L 227.882812 147.574219 C 227.882812 147.789062 228.039062 147.878906 228.222656 147.816406 L 228.5 147.726562 C 228.714844 147.664062 228.871094 147.449219 228.871094 147.234375 L 228.871094 146.652344 Z M 231.484375 145.792969 C 231.484375 145.578125 231.332031 145.484375 231.117188 145.546875 L 230.839844 145.636719 C 230.625 145.699219 230.46875 145.914062 230.46875 146.128906 L 230.46875 146.710938 C 230.46875 146.925781 230.625 147.019531 230.808594 146.957031 L 231.085938 146.867188 C 231.300781 146.804688 231.453125 146.589844 231.453125 146.375 L 231.453125 145.792969 Z M 234.070312 144.933594 C 234.070312 144.71875 233.914062 144.625 233.699219 144.6875 L 233.421875 144.777344 C 233.207031 144.839844 233.054688 145.054688 233.054688 145.269531 L 233.054688 145.851562 C 233.054688 146.066406 233.207031 146.160156 233.390625 146.097656 L 233.667969 146.007812 C 233.882812 145.945312 234.039062 145.730469 234.039062 145.515625 L 234.039062 144.933594 Z M 236.652344 144.074219 C 236.652344 143.859375 236.5 143.765625 236.285156 143.828125 L 236.007812 143.917969 C 235.792969 143.980469 235.636719 144.195312 235.636719 144.410156 L 235.636719 144.992188 C 235.636719 145.207031 235.792969 145.300781 235.976562 145.238281 L 236.253906 145.148438 C 236.46875 145.085938 236.625 144.871094 236.625 144.65625 L 236.625 144.074219 Z M 207.332031 167.894531 L 211.269531 167.035156 L 220.40625 158.871094 L 209.730469 161.386719 C 209.332031 161.511719 208.929688 161.601562 208.5625 161.726562 L 207.332031 167.925781 Z M 207.332031 167.894531 " fill-opacity="1" fill-rule="nonzero"/></g><g fill="#1d3865" fill-opacity="1"><g transform="translate(87.673749, 260.732765)"><g><path d="M 13.90625 0.625 C 11.53125 0.625 9.4375 0.191406 7.625 -0.671875 C 5.8125 -1.535156 4.390625 -2.769531 3.359375 -4.375 C 2.335938 -5.976562 1.828125 -7.894531 1.828125 -10.125 L 8.640625 -10.125 C 8.640625 -8.601562 9.164062 -7.476562 10.21875 -6.75 C 11.28125 -6.019531 12.492188 -5.65625 13.859375 -5.65625 C 14.722656 -5.65625 15.535156 -5.796875 16.296875 -6.078125 C 17.054688 -6.367188 17.679688 -6.785156 18.171875 -7.328125 C 18.660156 -7.878906 18.90625 -8.539062 18.90625 -9.3125 C 18.90625 -10.113281 18.617188 -10.742188 18.046875 -11.203125 C 17.484375 -11.671875 16.726562 -12.050781 15.78125 -12.34375 C 14.832031 -12.644531 13.789062 -12.925781 12.65625 -13.1875 C 11.5 -13.457031 10.3125 -13.785156 9.09375 -14.171875 C 7.875 -14.554688 6.742188 -15.066406 5.703125 -15.703125 C 4.660156 -16.347656 3.828125 -17.210938 3.203125 -18.296875 C 2.585938 -19.378906 2.28125 -20.753906 2.28125 -22.421875 C 2.28125 -25.421875 3.296875 -27.726562 5.328125 -29.34375 C 7.359375 -30.96875 10.113281 -31.78125 13.59375 -31.78125 C 17.164062 -31.78125 19.929688 -30.878906 21.890625 -29.078125 C 23.847656 -27.285156 24.828125 -24.84375 24.828125 -21.75 L 18.140625 -21.75 C 18.140625 -23.09375 17.664062 -24.082031 16.71875 -24.71875 C 15.769531 -25.351562 14.671875 -25.671875 13.421875 -25.671875 C 12.316406 -25.671875 11.300781 -25.429688 10.375 -24.953125 C 9.457031 -24.484375 9 -23.742188 9 -22.734375 C 9 -21.992188 9.273438 -21.40625 9.828125 -20.96875 C 10.378906 -20.539062 11.109375 -20.1875 12.015625 -19.90625 C 12.921875 -19.625 13.921875 -19.347656 15.015625 -19.078125 C 16.210938 -18.785156 17.429688 -18.4375 18.671875 -18.03125 C 19.921875 -17.632812 21.082031 -17.09375 22.15625 -16.40625 C 23.226562 -15.71875 24.097656 -14.804688 24.765625 -13.671875 C 25.429688 -12.546875 25.765625 -11.125 25.765625 -9.40625 C 25.765625 -7.144531 25.222656 -5.269531 24.140625 -3.78125 C 23.054688 -2.300781 21.617188 -1.195312 19.828125 -0.46875 C 18.046875 0.257812 16.070312 0.625 13.90625 0.625 Z M 13.90625 0.625 "/></g></g></g><g fill="#1d3865" fill-opacity="1"><g transform="translate(112.708467, 260.732765)"><g><path d="M 22.0625 -31.203125 L 28.796875 -31.203125 L 28.796875 0 L 22.0625 0 L 22.0625 -12.890625 L 10.34375 -12.890625 L 10.34375 0 L 3.5625 0 L 3.5625 -31.203125 L 10.34375 -31.203125 L 10.34375 -19.171875 L 22.0625 -19.171875 Z M 22.0625 -31.203125 "/></g></g></g><g fill="#1d3865" fill-opacity="1"><g transform="translate(142.554468, 260.732765)"><g><path d="M 24.296875 0 L 22.109375 -5.921875 L 9.671875 -5.921875 L 7.53125 0 L 0.40625 0 L 12.609375 -31.203125 L 18.984375 -31.203125 L 31.609375 0 Z M 15.875 -22.953125 L 11.8125 -11.8125 L 19.96875 -11.8125 Z M 15.875 -22.953125 "/></g></g></g><g fill="#1d3865" fill-opacity="1"><g transform="translate(171.999522, 260.732765)"><g><path d="M 29.59375 0 L 21.359375 0 L 10.34375 -15.25 L 10.34375 0 L 3.5625 0 L 3.5625 -31.203125 L 10.34375 -31.203125 L 10.34375 -16.8125 L 20.546875 -31.203125 L 28.4375 -31.203125 L 17.78125 -16.265625 Z M 29.59375 0 "/></g></g></g><g fill="#1d3865" fill-opacity="1"><g transform="translate(198.682557, 260.732765)"><g><path d="M 16.140625 0.671875 C 13.671875 0.671875 11.46875 0.144531 9.53125 -0.90625 C 7.601562 -1.96875 6.070312 -3.425781 4.9375 -5.28125 C 3.8125 -7.132812 3.25 -9.28125 3.25 -11.71875 L 3.25 -31.203125 L 10.03125 -31.203125 L 10.03125 -12.03125 C 10.03125 -10.101562 10.601562 -8.566406 11.75 -7.421875 C 12.894531 -6.273438 14.359375 -5.703125 16.140625 -5.703125 C 17.953125 -5.703125 19.425781 -6.273438 20.5625 -7.421875 C 21.707031 -8.566406 22.28125 -10.101562 22.28125 -12.03125 L 22.28125 -31.203125 L 29.015625 -31.203125 L 29.015625 -11.71875 C 29.015625 -9.28125 28.457031 -7.132812 27.34375 -5.28125 C 26.226562 -3.425781 24.695312 -1.96875 22.75 -0.90625 C 20.8125 0.144531 18.609375 0.671875 16.140625 0.671875 Z M 16.140625 0.671875 "/></g></g></g><g fill="#1d3865" fill-opacity="1"><g transform="translate(228.394899, 260.732765)"><g><path d="M 20.734375 0 L 14.671875 -10.65625 L 10.34375 -10.65625 L 10.34375 0 L 3.5625 0 L 3.5625 -31.203125 L 16.1875 -31.203125 C 18.257812 -31.203125 20.113281 -30.753906 21.75 -29.859375 C 23.382812 -28.972656 24.675781 -27.753906 25.625 -26.203125 C 26.582031 -24.660156 27.0625 -22.878906 27.0625 -20.859375 C 27.0625 -18.835938 26.546875 -17.03125 25.515625 -15.4375 C 24.492188 -13.851562 23.117188 -12.644531 21.390625 -11.8125 L 28.3125 0 Z M 10.34375 -24.96875 L 10.34375 -16.890625 L 15.734375 -16.890625 C 17.128906 -16.890625 18.226562 -17.269531 19.03125 -18.03125 C 19.832031 -18.789062 20.234375 -19.75 20.234375 -20.90625 C 20.234375 -22.09375 19.832031 -23.066406 19.03125 -23.828125 C 18.226562 -24.585938 17.128906 -24.96875 15.734375 -24.96875 Z M 10.34375 -24.96875 "/></g></g></g><g fill="#1d3865" fill-opacity="1"><g transform="translate(255.300675, 260.732765)"><g><path d="M 24.296875 0 L 22.109375 -5.921875 L 9.671875 -5.921875 L 7.53125 0 L 0.40625 0 L 12.609375 -31.203125 L 18.984375 -31.203125 L 31.609375 0 Z M 15.875 -22.953125 L 11.8125 -11.8125 L 19.96875 -11.8125 Z M 15.875 -22.953125 "/></g></g></g><g fill="#0c2f4e" fill-opacity="1"><g transform="translate(130.97878, 273.482438)"><g><path d="M 5.109375 -3.3125 L 6.46875 -3.3125 L 6.46875 -0.703125 C 6.113281 -0.441406 5.707031 -0.238281 5.25 -0.09375 C 4.789062 0.0390625 4.332031 0.109375 3.875 0.109375 C 3.195312 0.109375 2.59375 -0.03125 2.0625 -0.3125 C 1.53125 -0.601562 1.113281 -1 0.8125 -1.5 C 0.507812 -2.007812 0.359375 -2.582031 0.359375 -3.21875 C 0.359375 -3.851562 0.507812 -4.421875 0.8125 -4.921875 C 1.113281 -5.429688 1.535156 -5.828125 2.078125 -6.109375 C 2.617188 -6.398438 3.222656 -6.546875 3.890625 -6.546875 C 4.453125 -6.546875 4.960938 -6.445312 5.421875 -6.25 C 5.890625 -6.0625 6.28125 -5.789062 6.59375 -5.4375 L 5.625 -4.546875 C 5.164062 -5.035156 4.613281 -5.28125 3.96875 -5.28125 C 3.5625 -5.28125 3.195312 -5.191406 2.875 -5.015625 C 2.550781 -4.847656 2.300781 -4.609375 2.125 -4.296875 C 1.945312 -3.984375 1.859375 -3.625 1.859375 -3.21875 C 1.859375 -2.820312 1.945312 -2.46875 2.125 -2.15625 C 2.300781 -1.84375 2.546875 -1.597656 2.859375 -1.421875 C 3.179688 -1.242188 3.546875 -1.15625 3.953125 -1.15625 C 4.378906 -1.15625 4.765625 -1.25 5.109375 -1.4375 Z M 5.109375 -3.3125 "/></g></g></g><g fill="#0c2f4e" fill-opacity="1"><g transform="translate(140.088195, 273.482438)"><g><path d="M 0.765625 -6.4375 L 2.25 -6.4375 L 2.25 -1.21875 L 5.46875 -1.21875 L 5.46875 0 L 0.765625 0 Z M 0.765625 -6.4375 "/></g></g></g><g fill="#0c2f4e" fill-opacity="1"><g transform="translate(147.664609, 273.482438)"><g><path d="M 3.875 0.109375 C 3.207031 0.109375 2.601562 -0.03125 2.0625 -0.3125 C 1.53125 -0.601562 1.113281 -1 0.8125 -1.5 C 0.507812 -2.007812 0.359375 -2.582031 0.359375 -3.21875 C 0.359375 -3.84375 0.507812 -4.40625 0.8125 -4.90625 C 1.113281 -5.414062 1.53125 -5.816406 2.0625 -6.109375 C 2.601562 -6.398438 3.207031 -6.546875 3.875 -6.546875 C 4.539062 -6.546875 5.140625 -6.398438 5.671875 -6.109375 C 6.210938 -5.816406 6.632812 -5.414062 6.9375 -4.90625 C 7.238281 -4.40625 7.390625 -3.84375 7.390625 -3.21875 C 7.390625 -2.582031 7.238281 -2.007812 6.9375 -1.5 C 6.632812 -1 6.210938 -0.601562 5.671875 -0.3125 C 5.140625 -0.03125 4.539062 0.109375 3.875 0.109375 Z M 3.875 -1.15625 C 4.257812 -1.15625 4.601562 -1.242188 4.90625 -1.421875 C 5.207031 -1.597656 5.445312 -1.84375 5.625 -2.15625 C 5.800781 -2.46875 5.890625 -2.820312 5.890625 -3.21875 C 5.890625 -3.613281 5.800781 -3.96875 5.625 -4.28125 C 5.445312 -4.59375 5.207031 -4.835938 4.90625 -5.015625 C 4.601562 -5.191406 4.257812 -5.28125 3.875 -5.28125 C 3.5 -5.28125 3.15625 -5.191406 2.84375 -5.015625 C 2.539062 -4.835938 2.300781 -4.59375 2.125 -4.28125 C 1.945312 -3.96875 1.859375 -3.613281 1.859375 -3.21875 C 1.859375 -2.820312 1.945312 -2.46875 2.125 -2.15625 C 2.300781 -1.84375 2.539062 -1.597656 2.84375 -1.421875 C 3.15625 -1.242188 3.5 -1.15625 3.875 -1.15625 Z M 3.875 -1.15625 "/></g></g></g><g fill="#0c2f4e" fill-opacity="1"><g transform="translate(157.44414, 273.482438)"><g><path d="M 5.484375 -3.34375 C 5.847656 -3.226562 6.132812 -3.035156 6.34375 -2.765625 C 6.550781 -2.492188 6.65625 -2.15625 6.65625 -1.75 C 6.65625 -1.1875 6.4375 -0.753906 6 -0.453125 C 5.5625 -0.148438 4.925781 0 4.09375 0 L 0.765625 0 L 0.765625 -6.4375 L 3.90625 -6.4375 C 4.6875 -6.4375 5.285156 -6.285156 5.703125 -5.984375 C 6.128906 -5.679688 6.34375 -5.273438 6.34375 -4.765625 C 6.34375 -4.453125 6.265625 -4.171875 6.109375 -3.921875 C 5.960938 -3.679688 5.753906 -3.488281 5.484375 -3.34375 Z M 2.234375 -5.3125 L 2.234375 -3.796875 L 3.71875 -3.796875 C 4.082031 -3.796875 4.359375 -3.859375 4.546875 -3.984375 C 4.742188 -4.117188 4.84375 -4.3125 4.84375 -4.5625 C 4.84375 -4.8125 4.742188 -5 4.546875 -5.125 C 4.359375 -5.25 4.082031 -5.3125 3.71875 -5.3125 Z M 3.984375 -1.125 C 4.367188 -1.125 4.660156 -1.1875 4.859375 -1.3125 C 5.054688 -1.4375 5.15625 -1.632812 5.15625 -1.90625 C 5.15625 -2.4375 4.765625 -2.703125 3.984375 -2.703125 L 2.234375 -2.703125 L 2.234375 -1.125 Z M 3.984375 -1.125 "/></g></g></g><g fill="#0c2f4e" fill-opacity="1"><g transform="translate(166.498475, 273.482438)"><g><path d="M 5 -1.375 L 2.015625 -1.375 L 1.4375 0 L -0.078125 0 L 2.78125 -6.4375 L 4.25 -6.4375 L 7.125 0 L 5.5625 0 Z M 4.53125 -2.515625 L 3.515625 -4.96875 L 2.484375 -2.515625 Z M 4.53125 -2.515625 "/></g></g></g><g fill="#0c2f4e" fill-opacity="1"><g transform="translate(175.561989, 273.482438)"><g><path d="M 0.765625 -6.4375 L 2.25 -6.4375 L 2.25 -1.21875 L 5.46875 -1.21875 L 5.46875 0 L 0.765625 0 Z M 0.765625 -6.4375 "/></g></g></g><g fill="#0c2f4e" fill-opacity="1"><g transform="translate(183.138405, 273.482438)"><g/></g></g><g fill="#0c2f4e" fill-opacity="1"><g transform="translate(187.768159, 273.482438)"><g><path d="M 5.734375 -1.1875 L 5.734375 0 L 0.765625 0 L 0.765625 -6.4375 L 5.625 -6.4375 L 5.625 -5.234375 L 2.234375 -5.234375 L 2.234375 -3.84375 L 5.234375 -3.84375 L 5.234375 -2.6875 L 2.234375 -2.6875 L 2.234375 -1.1875 Z M 5.734375 -1.1875 "/></g></g></g><g fill="#0c2f4e" fill-opacity="1"><g transform="translate(195.959611, 273.482438)"><g><path d="M 4.8125 0 L 3.265625 -2.234375 L 1.734375 0 L 0.03125 0 L 2.40625 -3.265625 L 0.140625 -6.4375 L 1.84375 -6.4375 L 3.3125 -4.34375 L 4.765625 -6.4375 L 6.375 -6.4375 L 4.140625 -3.328125 L 6.53125 0 Z M 4.8125 0 "/></g></g></g><g fill="#0c2f4e" fill-opacity="1"><g transform="translate(204.545791, 273.482438)"><g><path d="M 3.546875 -6.4375 C 4.117188 -6.4375 4.613281 -6.335938 5.03125 -6.140625 C 5.445312 -5.953125 5.769531 -5.679688 6 -5.328125 C 6.226562 -4.984375 6.34375 -4.570312 6.34375 -4.09375 C 6.34375 -3.625 6.226562 -3.210938 6 -2.859375 C 5.769531 -2.503906 5.445312 -2.234375 5.03125 -2.046875 C 4.613281 -1.859375 4.117188 -1.765625 3.546875 -1.765625 L 2.25 -1.765625 L 2.25 0 L 0.765625 0 L 0.765625 -6.4375 Z M 3.46875 -2.984375 C 3.914062 -2.984375 4.253906 -3.078125 4.484375 -3.265625 C 4.710938 -3.460938 4.828125 -3.738281 4.828125 -4.09375 C 4.828125 -4.457031 4.710938 -4.734375 4.484375 -4.921875 C 4.253906 -5.117188 3.914062 -5.21875 3.46875 -5.21875 L 2.25 -5.21875 L 2.25 -2.984375 Z M 3.46875 -2.984375 "/></g></g></g><g fill="#0c2f4e" fill-opacity="1"><g transform="translate(213.2972, 273.482438)"><g><path d="M 4.859375 0 L 3.625 -1.796875 L 2.25 -1.796875 L 2.25 0 L 0.765625 0 L 0.765625 -6.4375 L 3.546875 -6.4375 C 4.117188 -6.4375 4.613281 -6.335938 5.03125 -6.140625 C 5.445312 -5.953125 5.769531 -5.679688 6 -5.328125 C 6.226562 -4.984375 6.34375 -4.570312 6.34375 -4.09375 C 6.34375 -3.613281 6.226562 -3.203125 6 -2.859375 C 5.769531 -2.515625 5.441406 -2.25 5.015625 -2.0625 L 6.453125 0 Z M 4.828125 -4.09375 C 4.828125 -4.457031 4.710938 -4.734375 4.484375 -4.921875 C 4.253906 -5.117188 3.914062 -5.21875 3.46875 -5.21875 L 2.25 -5.21875 L 2.25 -2.984375 L 3.46875 -2.984375 C 3.914062 -2.984375 4.253906 -3.078125 4.484375 -3.265625 C 4.710938 -3.460938 4.828125 -3.738281 4.828125 -4.09375 Z M 4.828125 -4.09375 "/></g></g></g><g fill="#0c2f4e" fill-opacity="1"><g transform="translate(222.076148, 273.482438)"><g><path d="M 5.734375 -1.1875 L 5.734375 0 L 0.765625 0 L 0.765625 -6.4375 L 5.625 -6.4375 L 5.625 -5.234375 L 2.234375 -5.234375 L 2.234375 -3.84375 L 5.234375 -3.84375 L 5.234375 -2.6875 L 2.234375 -2.6875 L 2.234375 -1.1875 Z M 5.734375 -1.1875 "/></g></g></g><g fill="#0c2f4e" fill-opacity="1"><g transform="translate(230.267601, 273.482438)"><g><path d="M 2.875 0.109375 C 2.363281 0.109375 1.867188 0.0390625 1.390625 -0.09375 C 0.921875 -0.226562 0.539062 -0.410156 0.25 -0.640625 L 0.765625 -1.75 C 1.035156 -1.550781 1.359375 -1.390625 1.734375 -1.265625 C 2.117188 -1.140625 2.503906 -1.078125 2.890625 -1.078125 C 3.304688 -1.078125 3.613281 -1.140625 3.8125 -1.265625 C 4.019531 -1.390625 4.125 -1.554688 4.125 -1.765625 C 4.125 -1.921875 4.0625 -2.050781 3.9375 -2.15625 C 3.820312 -2.257812 3.671875 -2.335938 3.484375 -2.390625 C 3.296875 -2.453125 3.046875 -2.519531 2.734375 -2.59375 C 2.242188 -2.71875 1.84375 -2.835938 1.53125 -2.953125 C 1.21875 -3.066406 0.945312 -3.25 0.71875 -3.5 C 0.5 -3.757812 0.390625 -4.101562 0.390625 -4.53125 C 0.390625 -4.90625 0.488281 -5.242188 0.6875 -5.546875 C 0.894531 -5.859375 1.203125 -6.101562 1.609375 -6.28125 C 2.015625 -6.457031 2.507812 -6.546875 3.09375 -6.546875 C 3.507812 -6.546875 3.910156 -6.492188 4.296875 -6.390625 C 4.691406 -6.296875 5.035156 -6.15625 5.328125 -5.96875 L 4.875 -4.84375 C 4.28125 -5.175781 3.6875 -5.34375 3.09375 -5.34375 C 2.675781 -5.34375 2.363281 -5.273438 2.15625 -5.140625 C 1.957031 -5.003906 1.859375 -4.828125 1.859375 -4.609375 C 1.859375 -4.390625 1.972656 -4.222656 2.203125 -4.109375 C 2.429688 -4.003906 2.785156 -3.898438 3.265625 -3.796875 C 3.753906 -3.679688 4.15625 -3.566406 4.46875 -3.453125 C 4.78125 -3.335938 5.046875 -3.15625 5.265625 -2.90625 C 5.492188 -2.65625 5.609375 -2.316406 5.609375 -1.890625 C 5.609375 -1.515625 5.503906 -1.175781 5.296875 -0.875 C 5.085938 -0.570312 4.773438 -0.332031 4.359375 -0.15625 C 3.953125 0.0195312 3.457031 0.109375 2.875 0.109375 Z M 2.875 0.109375 "/></g></g></g><g fill="#0c2f4e" fill-opacity="1"><g transform="translate(238.156125, 273.482438)"><g><path d="M 2.875 0.109375 C 2.363281 0.109375 1.867188 0.0390625 1.390625 -0.09375 C 0.921875 -0.226562 0.539062 -0.410156 0.25 -0.640625 L 0.765625 -1.75 C 1.035156 -1.550781 1.359375 -1.390625 1.734375 -1.265625 C 2.117188 -1.140625 2.503906 -1.078125 2.890625 -1.078125 C 3.304688 -1.078125 3.613281 -1.140625 3.8125 -1.265625 C 4.019531 -1.390625 4.125 -1.554688 4.125 -1.765625 C 4.125 -1.921875 4.0625 -2.050781 3.9375 -2.15625 C 3.820312 -2.257812 3.671875 -2.335938 3.484375 -2.390625 C 3.296875 -2.453125 3.046875 -2.519531 2.734375 -2.59375 C 2.242188 -2.71875 1.84375 -2.835938 1.53125 -2.953125 C 1.21875 -3.066406 0.945312 -3.25 0.71875 -3.5 C 0.5 -3.757812 0.390625 -4.101562 0.390625 -4.53125 C 0.390625 -4.90625 0.488281 -5.242188 0.6875 -5.546875 C 0.894531 -5.859375 1.203125 -6.101562 1.609375 -6.28125 C 2.015625 -6.457031 2.507812 -6.546875 3.09375 -6.546875 C 3.507812 -6.546875 3.910156 -6.492188 4.296875 -6.390625 C 4.691406 -6.296875 5.035156 -6.15625 5.328125 -5.96875 L 4.875 -4.84375 C 4.28125 -5.175781 3.6875 -5.34375 3.09375 -5.34375 C 2.675781 -5.34375 2.363281 -5.273438 2.15625 -5.140625 C 1.957031 -5.003906 1.859375 -4.828125 1.859375 -4.609375 C 1.859375 -4.390625 1.972656 -4.222656 2.203125 -4.109375 C 2.429688 -4.003906 2.785156 -3.898438 3.265625 -3.796875 C 3.753906 -3.679688 4.15625 -3.566406 4.46875 -3.453125 C 4.78125 -3.335938 5.046875 -3.15625 5.265625 -2.90625 C 5.492188 -2.65625 5.609375 -2.316406 5.609375 -1.890625 C 5.609375 -1.515625 5.503906 -1.175781 5.296875 -0.875 C 5.085938 -0.570312 4.773438 -0.332031 4.359375 -0.15625 C 3.953125 0.0195312 3.457031 0.109375 2.875 0.109375 Z M 2.875 0.109375 "/></g></g></g></svg>